<svg width="34" height="33" viewBox="0 0 34 33" fill="none" xmlns="http://www.w3.org/2000/svg">
<path d="M16.9619 0.5C26.089 0.500206 33.489 7.77385 33.4893 16.6611C33.4893 23.6962 28.9224 29.3876 23.0938 31.5576L23.0859 31.5605C22.707 31.7085 22.4227 31.6574 22.25 31.5479C22.0809 31.4405 21.9424 31.2296 21.9424 30.8916V27.5205C21.9423 26.0687 21.4683 24.7131 20.6631 23.7832C24.7466 22.8894 27.585 19.8785 27.585 15.916C27.585 14.2206 27.0489 12.5437 26.0195 11.2402C26.1972 10.628 26.2635 9.84748 26.2451 9.12402C26.2239 8.2919 26.0897 7.40837 25.8008 6.86426L25.6787 6.63477L25.4199 6.60254L25.1289 6.5791C24.4398 6.5492 23.6871 6.69504 22.9902 6.93945C22.2862 7.18642 21.6023 7.54653 21.0586 7.97363C19.8802 7.64954 18.5809 7.47464 17.0283 7.47461C15.4699 7.47461 14.1654 7.65069 12.9287 8.00391C12.3753 7.56475 11.6924 7.19612 10.9893 6.94434C10.1954 6.66008 9.33409 6.50919 8.56934 6.60254L8.31055 6.63477L8.18848 6.86523C7.88502 7.43828 7.74139 8.33402 7.71582 9.1748C7.69378 9.89983 7.75767 10.6748 7.93555 11.2773C6.96565 12.5344 6.4043 14.2885 6.4043 15.916C6.4043 19.8795 9.24715 22.9562 13.2988 23.8271C13.0844 24.0449 12.8612 24.2781 12.6289 24.5049C12.2614 24.8637 11.9815 25.0818 11.7178 25.2139C11.4654 25.3402 11.2034 25.4003 10.8545 25.4004C10.2394 25.4004 9.67633 25.1068 9.07129 24.25L9.06934 24.2461L8.90039 24.0186C8.05152 22.9098 7.1368 22.2559 6.00781 22.2559C5.61091 22.2559 5.2024 22.3416 4.87598 22.501C4.60565 22.633 4.23022 22.9019 4.18457 23.3457L4.17969 23.4365L4.18457 23.5205C4.20333 23.7183 4.28973 23.9209 4.47656 24.0762C4.66444 24.2321 4.90498 24.2978 5.14844 24.3203V24.3213C5.41565 24.3554 5.60089 24.4562 5.7627 24.625C5.93923 24.8093 6.10168 25.0901 6.27637 25.5088L6.27832 25.5137C6.76118 26.6419 7.35989 27.5595 8.16309 28.1934C8.97646 28.8351 9.96083 29.1552 11.1523 29.1553C11.5094 29.1553 11.8881 29.1027 12.2461 29.0156V30.9248C12.2459 31.4166 11.7624 31.8075 11.1572 31.5889L11.1543 31.5879L10.585 31.374C4.7541 29.0546 0.5 23.4136 0.5 16.6611C0.50026 7.7712 7.83726 0.5 16.9619 0.5Z" fill="white" stroke="black"/>
</svg>
