<svg width="67" height="66" viewBox="0 0 67 66" fill="none" xmlns="http://www.w3.org/2000/svg">
<path d="M28.3311 47.7021C19.6943 46.6493 13.6093 40.3987 13.6093 32.3058C13.6093 29.016 14.7871 25.463 16.75 23.0944C15.8994 20.9231 16.0303 16.3174 17.0117 14.4093C19.6289 14.0803 23.1621 15.462 25.2559 17.3701C27.7422 16.5806 30.3593 16.1858 33.5654 16.1858C36.7715 16.1858 39.3887 16.5806 41.7441 17.3043C43.7725 15.462 47.3711 14.0803 49.9883 14.4093C50.9043 16.1858 51.0351 20.7915 50.1846 23.0286C52.2783 25.5288 53.3906 28.8844 53.3906 32.3058C53.3906 40.3987 47.3057 46.5177 38.5381 47.6363C40.7627 49.0837 42.2676 52.242 42.2676 55.8607V62.7035C42.2676 64.6774 43.9033 65.7959 45.8662 65.0064C57.709 60.4665 67 48.5574 67 33.8191C67 15.1988 51.9512 1.64064e-07 33.4346 0C14.918 -1.64064e-07 1.63152e-07 15.1988 0 33.8191C-1.27984e-07 48.4258 9.22556 60.5322 21.6572 65.0721C23.4238 65.7301 25.125 64.5458 25.125 62.7693V57.5056C24.209 57.9004 23.0312 58.1636 21.9843 58.1636C17.666 58.1636 15.1142 55.795 13.2822 51.3866C12.5625 49.6101 11.7774 48.5574 10.2725 48.36C9.48734 48.2942 9.22556 47.9652 9.22556 47.5705C9.22556 46.7809 10.5342 46.1887 11.8428 46.1887C13.7403 46.1887 15.376 47.3731 17.0771 49.8075C18.3858 51.7156 19.7597 52.5709 21.3955 52.5709C23.0312 52.5709 24.0781 51.9788 25.583 50.4655C26.6953 49.3469 27.5459 48.36 28.3311 47.7021Z" fill="#3B3F44"/>
</svg>
