<svg width="57" height="57" viewBox="0 0 57 57" fill="none" xmlns="http://www.w3.org/2000/svg">
<g clip-path="url(#clip0_144_156)">
<path d="M48.6649 8.35983C37.5418 -2.77692 19.4967 -2.78799 8.35986 8.33495C-2.77689 19.4582 -2.78809 37.5033 8.33512 48.6402C19.4581 59.777 37.5034 59.788 48.6403 48.665C59.7769 37.542 59.7881 19.4966 48.6649 8.35983ZM32.4793 46.5846C32.4793 47.0243 32.123 47.3804 31.6835 47.3804H25.3166C24.8772 47.3804 24.5208 47.0243 24.5208 46.5846V22.9494C24.5208 22.5097 24.8772 22.1536 25.3166 22.1536H31.6835C32.123 22.1536 32.4793 22.5095 32.4793 22.9494V46.5846ZM28.5001 18.8507C25.955 18.8507 23.8843 16.7803 23.8843 14.2351C23.8843 11.6902 25.9549 9.61936 28.5001 9.61936C31.0452 9.61936 33.1158 11.6901 33.1158 14.2351C33.1158 16.7803 31.045 18.8507 28.5001 18.8507Z" fill="#EF899A"/>
</g>
<defs>
<clipPath id="clip0_144_156">
<rect width="57" height="57" fill="white"/>
</clipPath>
</defs>
</svg>
