<svg width="57" height="57" viewBox="0 0 57 57" fill="none" xmlns="http://www.w3.org/2000/svg">
<path d="M56.6667 4.16667V52.5C56.6667 53.605 56.2278 54.6649 55.4463 55.4463C54.6649 56.2278 53.605 56.6667 52.5 56.6667H4.16667C3.06159 56.6667 2.00178 56.2278 1.2204 55.4463C0.438997 54.6649 0 53.605 0 52.5V4.16667C0 3.06159 0.438997 2.00178 1.2204 1.2204C2.00178 0.438997 3.06159 0 4.16667 0H52.5C53.605 0 54.6649 0.438997 55.4463 1.2204C56.2278 2.00178 56.6667 3.06159 56.6667 4.16667ZM16.6667 21.6667H8.33334V48.3333H16.6667V21.6667ZM17.4167 12.5C17.4211 11.8697 17.3012 11.2446 17.0641 10.6606C16.8269 10.0765 16.477 9.5449 16.0344 9.0961C15.5917 8.64728 15.0651 8.29002 14.4844 8.04477C13.9037 7.79951 13.2803 7.67102 12.65 7.66666H12.5C11.2181 7.66666 9.98875 8.17589 9.08231 9.08231C8.17589 9.98875 7.66666 11.2181 7.66666 12.5C7.66666 13.7819 8.17589 15.0113 9.08231 15.9177C9.98875 16.8241 11.2181 17.3333 12.5 17.3333C13.1304 17.3488 13.7577 17.24 14.346 17.013C14.9343 16.786 15.4721 16.4453 15.9287 16.0104C16.3853 15.5755 16.7517 15.0548 17.007 14.4782C17.2623 13.9016 17.4015 13.2804 17.4167 12.65V12.5ZM48.3333 32.1334C48.3333 24.1168 43.2333 21 38.1667 21C36.5078 20.9169 34.8559 21.2703 33.3764 22.0248C31.8965 22.7791 30.6405 23.9085 29.7333 25.3H29.5001V21.6667H21.6667V48.3333H29.9999V34.1499C29.8795 32.6975 30.3371 31.2559 31.2732 30.1387C32.2096 29.0215 33.5486 28.3189 34.9999 28.1834H35.3166C37.9667 28.1834 39.9333 29.85 39.9333 34.0499V48.3333H48.2667L48.3333 32.1334Z" fill="#3B3F44"/>
</svg>
